# File created by Blade
# Date/Time:  Thu Sep 25 21:01:51 2014
# Frame Rate: 120.000 fps
#------------------------------------------------------
:FULLY-SPECIFIED
:DEGREES
4135
root -0.996678 33.121610 -6.068954 27.512161 -13.013792 -5.438874
Spine -8.940287 12.851149 -2.895465
Head -43.294611 -0.026718 7.069571
LeftShoulder -8.820861 15.274983 16.123485
LeftArm 25.518892 15.695043 -61.366240
LeftForeArm 9.883327 -0.000000 16.203055
LeftHand -20.303882 -0.000000 -19.309669
LeftHandThumb1 -26.253704 0.000000 33.147579
RightShoulder -15.801545 15.569251 -24.027572
RightArm -11.867314 -5.481457 77.783163
RightForeArm -26.494524 -0.000000 20.624286
RightHand -8.307322 -0.000000 6.154600
RightHandThumb1 -24.326973 -0.000000 -32.862282
LeftUpLeg -34.761358 7.627205 -1.089070
LeftLeg 14.055587 -0.000000 -0.000000
LeftFoot -11.534279 12.455696 -6.192052
LeftToeBase 11.187058 -0.000000 -0.000000
RightUpLeg -32.979438 -0.861413 1.016111
RightLeg 65.622742 -0.000000 -0.000000
RightFoot -6.792087 -14.848868 5.349495
RightToeBase -10.883637 -0.000000 0.000000
4136
root -1.038260 33.196506 -5.966580 27.105704 -13.139947 -5.860794
Spine -8.818039 12.777433 -2.265093
Head -42.525067 0.343320 6.983123
LeftShoulder -9.159268 15.740998 16.309545
LeftArm 25.314964 13.828475 -60.453272
LeftForeArm 9.966994 -0.000000 15.639277
LeftHand -20.635972 -0.000000 -19.283110
LeftHandThumb1 -26.253704 0.000000 33.147579
RightShoulder -16.153982 15.514120 -24.479895
RightArm -11.935291 -4.273245 75.529198
RightForeArm -26.715406 -0.000000 20.206911
RightHand -8.254556 -0.000000 5.986058
RightHandThumb1 -24.326973 -0.000000 -32.862282
LeftUpLeg -33.241776 8.483245 -0.927693
LeftLeg 12.255839 -0.000000 -0.000000
LeftFoot -10.775177 11.982242 -5.817242
LeftToeBase 11.227995 -0.000000 -0.000000
RightUpLeg -33.035631 -0.472887 1.466231
RightLeg 64.735176 -0.000000 -0.000000
RightFoot -7.858789 -14.904170 5.999964
RightToeBase -10.187530 -0.000000 0.000000
4137
root -1.072874 33.256441 -5.857200 26.633794 -13.315026 -6.229815
Spine -8.610747 12.757826 -1.701374
Head -41.818341 0.736755 6.906627
LeftShoulder -9.509043 16.039157 16.534181
LeftArm 25.026776 12.176140 -59.424275
LeftForeArm 9.774378 -0.000000 15.227151
LeftHand -21.565131 -0.000000 -18.851439
LeftHandThumb1 -26.253704 0.000000 33.147579
RightShoulder -16.544406 15.431808 -24.859257
RightArm -11.906657 -2.962988 73.099869
RightForeArm -27.027767 0.000000 19.845510
RightHand -8.230740 0.000000 5.788870
RightHandThumb1 -24.326973 -0.000000 -32.862282
LeftUpLeg -31.688034 9.392330 -0.835742
LeftLeg 10.525158 -0.000000 -0.000000
LeftFoot -10.093968 11.440480 -5.437706
LeftToeBase 11.328625 -0.000000 -0.000000
RightUpLeg -32.963045 -0.173505 1.820208
RightLeg 63.678035 -0.000000 -0.000000
RightFoot -8.877284 -14.812787 6.547669
RightToeBase -9.519236 -0.000000 0.000000
4138
root -1.111547 33.307709 -5.751489 26.178412 -13.442799 -6.599721
Spine -8.418384 12.680273 -1.129186
Head -41.107630 1.130969 6.871676
LeftShoulder -9.872813 16.435510 16.769133
LeftArm 24.778472 10.310684 -58.408313
LeftForeArm 9.889883 -0.000000 14.839255
LeftHand -21.835316 0.000000 -18.552454
LeftHandThumb1 -26.253704 0.000000 33.147579
RightShoulder -16.913425 15.303575 -25.159225
RightArm -11.738998 -1.732863 70.570900
RightForeArm -27.300246 -0.000000 19.486561
RightHand -8.301397 -0.000000 5.395772
RightHandThumb1 -24.326973 -0.000000 -32.862282
LeftUpLeg -30.140204 10.127582 -0.634082
LeftLeg 8.778957 -0.000000 -0.000000
LeftFoot -9.424023 11.013718 -5.222925
LeftToeBase 11.445415 -0.000000 -0.000000
RightUpLeg -32.847594 0.092369 2.200781
RightLeg 62.450737 -0.000000 -0.000000
RightFoot -9.731456 -14.659470 6.955636
RightToeBase -9.124024 -0.000000 0.000000
4139
root -1.151178 33.347055 -5.653227 25.767190 -13.518817 -6.947730
Spine -8.268831 12.550344 -0.577114
Head -40.405787 1.573031 6.898158
LeftShoulder -10.215402 16.820283 17.053941
LeftArm 24.498055 8.616800 -57.277621
LeftForeArm 9.965994 0.000000 14.578203
LeftHand -22.356261 -0.000000 -18.336736
LeftHandThumb1 -26.253704 0.000000 33.147579
RightShoulder -17.244217 15.291866 -25.473223
RightArm -11.646849 -0.359022 67.979579
RightForeArm -27.875431 -0.000000 19.152151
RightHand -8.415341 -0.000000 4.803544
RightHandThumb1 -24.326973 -0.000000 -32.862282
LeftUpLeg -28.624769 10.617518 -0.311184
LeftLeg 7.010941 -0.000000 -0.000000
LeftFoot -8.784611 10.836094 -5.090079
LeftToeBase 11.105182 -0.000000 -0.000000
RightUpLeg -32.751276 0.323259 2.584444
RightLeg 61.108962 -0.000000 -0.000000
RightFoot -10.518548 -14.513075 7.247085
RightToeBase -8.731914 -0.000000 0.000000
4140
root -1.195731 33.373763 -5.549097 25.308628 -13.541995 -7.248288
Spine -8.102615 12.397422 -0.071957
Head -39.696685 1.904545 6.957171
LeftShoulder -10.519711 17.325880 17.319143
LeftArm 24.310358 6.817303 -56.024552
LeftForeArm 9.996322 -0.000000 14.343767
LeftHand -22.643091 -0.000000 -18.341982
LeftHandThumb1 -26.253704 0.000000 33.147579
RightShoulder -17.552594 15.319514 -25.755417
RightArm -11.671822 1.034055 65.326482
RightForeArm -28.425373 -0.000000 19.008464
RightHand -8.713202 0.000000 4.110138
RightHandThumb1 -24.326973 -0.000000 -32.862282
LeftUpLeg -27.274799 11.433616 -0.184724
LeftLeg 5.602633 -0.000000 -0.000000
LeftFoot -8.290826 10.210477 -4.764471
LeftToeBase 11.126187 -0.000000 -0.000000
RightUpLeg -32.533591 0.464384 2.946610
RightLeg 59.596491 -0.000000 -0.000000
RightFoot -11.299308 -14.309171 7.585197
RightToeBase -8.409645 -0.000000 0.000000
4141
root -1.234353 33.393217 -5.454417 24.935388 -13.537573 -7.514792
Spine -8.006039 12.210718 0.391873
Head -39.077880 2.349336 7.053368
LeftShoulder -10.839503 17.755915 17.592502
LeftArm 24.074363 5.082408 -54.717052
LeftForeArm 10.072202 0.000000 14.151183
LeftHand -22.960159 0.000000 -18.019098
LeftHandThumb1 -26.253704 0.000000 33.147579
RightShoulder -17.900919 15.422296 -26.061498
RightArm -11.714473 2.128391 62.637020
RightForeArm -28.615399 -0.000000 18.983827
RightHand -9.169489 -0.000000 3.307482
RightHandThumb1 -24.326973 -0.000000 -32.862282
LeftUpLeg -25.909803 11.801026 0.110433
LeftLeg 4.010495 -0.000000 -0.000000
LeftFoot -7.745110 9.965632 -4.718935
LeftToeBase 11.059821 -0.000000 -0.000000
RightUpLeg -32.376315 0.595472 3.273712
RightLeg 57.966054 -0.000000 -0.000000
RightFoot -12.035351 -14.069419 8.127201
RightToeBase -8.112581 -0.000000 0.000000
4142
root -1.265220 33.400962 -5.361060 24.540284 -13.562718 -7.689310
Spine -7.902208 12.051441 0.733862
Head -38.456585 2.657715 7.147577
LeftShoulder -11.098712 18.057902 17.938560
LeftArm 23.729309 3.436246 -53.391446
LeftForeArm 10.445241 0.000000 14.012685
LeftHand -23.279281 0.000000 -17.849009
LeftHandThumb1 -26.253704 0.000000 33.147579
RightShoulder -18.215433 15.454856 -26.353730
RightArm -11.699648 3.450087 59.952075
RightForeArm -29.050389 -0.000000 18.990468
RightHand -9.620285 -0.000000 2.308677
RightHandThumb1 -24.326973 -0.000000 -32.862282
LeftUpLeg -24.778393 12.473601 0.176762
LeftLeg 2.864333 -0.000000 -0.000000
LeftFoot -7.430505 9.303133 -4.753744
LeftToeBase 10.926313 -0.000000 -0.000000
RightUpLeg -32.190354 0.656340 3.478147
RightLeg 56.213780 -0.000000 -0.000000
RightFoot -12.690136 -13.918604 8.159944
RightToeBase -7.326799 -0.000000 0.000000
4143
root -1.293779 33.402012 -5.271804 24.195320 -13.522224 -7.809694
Spine -7.876456 11.869732 1.025481
Head -37.850608 2.951361 7.273503
LeftShoulder -11.317572 18.329674 18.296496
LeftArm 23.377772 1.903972 -51.957714
LeftForeArm 10.652171 -0.000000 13.863159
LeftHand -23.593382 -0.000000 -17.616756
LeftHandThumb1 -26.253704 0.000000 33.147579
RightShoulder -18.548719 15.473255 -26.683817
RightArm -11.731120 4.838956 57.275748
RightForeArm -29.389487 -0.000000 19.158166
RightHand -10.007233 -0.000000 1.521602
RightHandThumb1 -24.326973 -0.000000 -32.862282
LeftUpLeg -23.811762 13.147748 0.179249
LeftLeg 1.862618 -0.000000 -0.000000
LeftFoot -7.124644 8.667143 -4.466568
LeftToeBase 10.902387 -0.000000 -0.000000
RightUpLeg -32.020588 0.757123 3.645598
RightLeg 54.395515 -0.000000 -0.000000
RightFoot -13.326480 -13.558481 8.639463
RightToeBase -7.130108 -0.000000 0.000000
4144
root -1.329741 33.399851 -5.199881 23.960241 -13.305159 -7.927434
Spine -7.958287 11.551305 1.347090
Head -37.265809 3.176217 7.432932
LeftShoulder -11.521953 18.605272 18.707427
LeftArm 23.026421 0.431243 -50.529186
LeftForeArm 10.894510 -0.000000 13.766765
LeftHand -24.016034 -0.000000 -17.478236
LeftHandThumb1 -26.253704 0.000000 33.147579
RightShoulder -18.844129 15.645667 -27.115977
RightArm -11.968056 5.983693 54.683065
RightForeArm -29.591289 -0.000000 19.423822
RightHand -10.559575 -0.000000 1.016342
RightHandThumb1 -24.326973 -0.000000 -32.862282
LeftUpLeg -22.787374 12.674130 0.649314
LeftLeg 0.630096 -0.000000 -0.000000
LeftFoot -6.750835 9.021093 -4.852781
LeftToeBase 10.704957 -0.000000 -0.000000
RightUpLeg -31.902628 0.708894 3.884228
RightLeg 52.415074 -0.000000 -0.000000
RightFoot -13.898067 -13.299571 9.129038
RightToeBase -7.014099 -0.000000 0.000000
4145
root -1.366922 33.389201 -5.122524 23.709246 -13.081035 -7.999603
Spine -8.048667 11.263569 1.615247
Head -36.698523 3.386380 7.577282
LeftShoulder -11.714082 18.843786 19.095780
LeftArm 22.695712 -0.920060 -48.977980
LeftForeArm 10.899594 -0.000000 13.639238
LeftHand -24.307797 -0.000000 -16.784444
LeftHandThumb1 -26.253704 0.000000 33.147579
RightShoulder -19.138056 15.573362 -27.591846
RightArm -12.097228 7.508605 52.232485
RightForeArm -30.113946 -0.000000 19.822890
RightHand -11.123804 -0.000000 0.350655
RightHandThumb1 -24.326973 -0.000000 -32.862282
LeftUpLeg -21.744592 11.867356 1.193810
LeftLeg -0.537312 -0.000000 0.000000
LeftFoot -6.519592 9.732231 -5.151031
LeftToeBase 10.643090 -0.000000 -0.000000
RightUpLeg -31.715077 0.682638 4.070921
RightLeg 50.331471 -0.000000 -0.000000
RightFoot -14.455874 -13.192460 9.401382
RightToeBase -6.470617 -0.000000 0.000000
4146
root -1.402609 33.373163 -5.049321 23.430234 -12.748608 -7.965378
Spine -8.106788 10.850223 1.800029
Head -36.207307 3.525647 7.727834
LeftShoulder -11.872418 19.041368 19.567215
LeftArm 22.308609 -2.316754 -47.509426
LeftForeArm 10.899505 -0.000000 13.540683
LeftHand -24.583863 -0.000000 -16.459978
LeftHandThumb1 -26.253704 0.000000 33.147579
RightShoulder -19.467583 15.497130 -28.090899
RightArm -12.130625 8.682975 49.906361
RightForeArm -30.315411 -0.000000 20.160630
RightHand -11.703750 0.000000 -0.196077
RightHandThumb1 -24.326973 -0.000000 -32.862282
LeftUpLeg -20.839236 10.904593 1.673334
LeftLeg -1.498324 -0.000000 0.000000
LeftFoot -6.305946 10.414852 -5.215480
LeftToeBase 10.652192 -0.000000 -0.000000
RightUpLeg -31.493520 0.487774 4.193326
RightLeg 48.209293 -0.000000 -0.000000
RightFoot -14.906451 -13.025522 9.800080
RightToeBase -6.023921 -0.000000 0.000000
